<?xml version="1.0" encoding="UTF-8" standalone="no"?>
<!-- Created with Inkscape (http://www.inkscape.org/) -->

<svg
   width="187.158mm"
   height="64.504997mm"
   viewBox="0 0 187.158 64.504997"
   version="1.1"
   id="svg1"
   inkscape:version="1.4.2 (f4327f4, 2025-05-13)"
   sodipodi:docname="Trividhi_Labs_Logo1.svg"
   inkscape:export-filename="Trividhi_Labs_Logo1.pdf"
   inkscape:export-xdpi="96"
   inkscape:export-ydpi="96"
   xmlns:inkscape="http://www.inkscape.org/namespaces/inkscape"
   xmlns:sodipodi="http://sodipodi.sourceforge.net/DTD/sodipodi-0.dtd"
   xmlns="http://www.w3.org/2000/svg"
   xmlns:svg="http://www.w3.org/2000/svg">
  <sodipodi:namedview
     id="namedview1"
     pagecolor="#ffffff"
     bordercolor="#000000"
     borderopacity="0.25"
     inkscape:showpageshadow="2"
     inkscape:pageopacity="0.0"
     inkscape:pagecheckerboard="0"
     inkscape:deskcolor="#d1d1d1"
     inkscape:document-units="mm"
     inkscape:zoom="0.92599442"
     inkscape:cx="228.94306"
     inkscape:cy="42.656845"
     inkscape:window-width="1920"
     inkscape:window-height="974"
     inkscape:window-x="-11"
     inkscape:window-y="-11"
     inkscape:window-maximized="1"
     inkscape:current-layer="layer1" />
  <defs
     id="defs1" />
  <g
     inkscape:label="Layer 1"
     inkscape:groupmode="layer"
     id="layer1"
     transform="translate(-12.231294,-16.651478)">
    <g
       id="g1"
       transform="translate(2.5715598,2.2858309)">
      <path
         sodipodi:type="star"
         style="fill:#00a0ff;fill-opacity:1;stroke:#00a0ff;stroke-width:13.1107;stroke-miterlimit:0;stroke-dasharray:none;stroke-opacity:1;paint-order:fill markers stroke"
         id="path2-85-2"
         inkscape:flatsided="true"
         sodipodi:sides="3"
         sodipodi:cx="75.273956"
         sodipodi:cy="205.05208"
         sodipodi:r1="49.42329"
         sodipodi:r2="24.711643"
         sodipodi:arg1="0.52113814"
         sodipodi:arg2="1.5683357"
         inkscape:rounded="0"
         inkscape:randomized="0"
         d="m 118.13646,229.65833 -85.603393,0.21064 42.619277,-74.24003 z"
         inkscape:transform-center-x="3.8723785"
         inkscape:transform-center-y="-0.24213824"
         transform="matrix(0.2735044,0.14259582,-0.16167921,0.26509927,70.429336,-33.646168)" />
      <path
         sodipodi:type="star"
         style="fill:none;stroke:none;stroke-width:6.00001;stroke-miterlimit:0;stroke-opacity:1;paint-order:fill markers stroke"
         id="path2-8-7-8"
         inkscape:flatsided="true"
         sodipodi:sides="3"
         sodipodi:cx="75.273956"
         sodipodi:cy="205.05208"
         sodipodi:r1="49.42329"
         sodipodi:r2="24.711643"
         sodipodi:arg1="0.52113814"
         sodipodi:arg2="1.5683357"
         inkscape:rounded="0"
         inkscape:randomized="0"
         d="m 118.13646,229.65833 -85.603393,0.21064 42.619277,-74.24003 z"
         inkscape:transform-center-x="-4.5516957"
         inkscape:transform-center-y="0.084654809"
         transform="matrix(-0.32501415,-0.17078694,0.18499263,-0.30096029,36.839727,118.09853)" />
      <path
         sodipodi:type="star"
         style="fill:#00a0ff;fill-opacity:1;stroke:#00a0ff;stroke-width:13.1107;stroke-miterlimit:0;stroke-dasharray:none;stroke-opacity:1;paint-order:fill markers stroke"
         id="path2-1-6-6"
         inkscape:flatsided="true"
         sodipodi:sides="3"
         sodipodi:cx="75.273956"
         sodipodi:cy="205.05208"
         sodipodi:r1="49.42329"
         sodipodi:r2="24.711643"
         sodipodi:arg1="0.52113814"
         sodipodi:arg2="1.5683357"
         inkscape:rounded="0"
         inkscape:randomized="0"
         d="m 118.13646,229.65833 -85.603393,0.21064 42.619277,-74.24003 z"
         inkscape:transform-center-x="3.8723805"
         inkscape:transform-center-y="-0.2421426"
         transform="matrix(0.2735044,0.14259582,-0.16167921,0.26509927,41.553839,-16.816215)" />
      <path
         sodipodi:type="star"
         style="fill:#00a0ff;fill-opacity:1;stroke:#00a0ff;stroke-width:13.1107;stroke-miterlimit:0;stroke-dasharray:none;stroke-opacity:1;paint-order:fill markers stroke"
         id="path2-2-1-0"
         inkscape:flatsided="true"
         sodipodi:sides="3"
         sodipodi:cx="75.273956"
         sodipodi:cy="205.05208"
         sodipodi:r1="49.42329"
         sodipodi:r2="24.711643"
         sodipodi:arg1="0.52113814"
         sodipodi:arg2="1.5683357"
         inkscape:rounded="0"
         inkscape:randomized="0"
         d="m 118.13646,229.65833 -85.603393,0.21064 42.619277,-74.24003 z"
         inkscape:transform-center-x="3.872379"
         inkscape:transform-center-y="-0.24213601"
         transform="matrix(0.2735044,0.14259582,-0.16167921,0.26509927,69.821896,-2.312099)" />
      <path
         style="font-size:35.2777px;font-family:Veiran;-inkscape-font-specification:'Veiran, Normal';fill:#000096;stroke-width:4.053;stroke-linecap:square;stroke-linejoin:round;stroke-miterlimit:0;paint-order:markers stroke fill"
         d="m 89.156189,21.870282 c 0.18815,0 0.28222,0.0941 0.28222,0.28222 v 1.763891 c 0,0.21167 -0.0941,0.3175 -0.28222,0.3175 l -5.60915,-0.67028 v 22.718839 c 0,0.18815 -0.10584,0.28222 -0.3175,0.28222 h -3.52777 c -0.18815,0 -0.28222,-0.0941 -0.28222,-0.28222 V 23.563613 l -5.60916,0.67028 c -0.21166,0 -0.3175,-0.10583 -0.3175,-0.3175 v -1.763891 c 0,-0.18815 0.10584,-0.28222 0.3175,-0.28222 z m 5.5033,10.477481 c 0.30574,-0.82315 0.69379,-1.5875 1.16416,-2.29305 0.47037,-0.72907 1.0113,-1.36407 1.62278,-1.905 0.635,-0.54093 1.34055,-0.96426 2.116663,-1.27 0.799618,-0.30574 1.658058,-0.45861 2.575278,-0.45861 v 3.84527 c -0.87019,0 -1.75214,0.14111 -2.645838,0.42333 -0.893703,0.25871 -1.705093,0.65852 -2.434163,1.19945 -0.70555,0.54092 -1.28175,1.211199 -1.7286,2.010829 -0.44686,0.79963 -0.67028,1.7286 -0.67028,2.78693 v 9.59554 c 0,0.18815 -0.0941,0.28222 -0.28222,0.28222 h -3.24555 c -0.18815,0 -0.28222,-0.0941 -0.28222,-0.28222 V 27.832213 c 0,-0.14111 0.0705,-0.23518 0.21166,-0.28222 l 3.24555,-0.74083 c 0.23519,-0.0471 0.35278,0.047 0.35278,0.28222 z M 108.45304,21.552782 c 0.61148,0 1.10537,0.19991 1.48166,0.59972 0.39982,0.39981 0.59972,0.870181 0.59972,1.411111 0,0.54093 -0.1999,1.0113 -0.59972,1.41111 -0.37629,0.37629 -0.87018,0.56444 -1.48166,0.56444 -0.61148,0 -1.11713,-0.18815 -1.51694,-0.56444 -0.3763,-0.39981 -0.56444,-0.87018 -0.56444,-1.41111 0,-0.54093 0.18814,-1.011301 0.56444,-1.411111 0.39981,-0.39981 0.90546,-0.59972 1.51694,-0.59972 z m 1.55222,5.256381 c 0.23518,-0.0471 0.35278,0.047 0.35278,0.28222 v 19.191069 c 0,0.18815 -0.0941,0.28222 -0.28223,0.28222 h -3.24554 c -0.18815,0 -0.28223,-0.0941 -0.28223,-0.28222 V 27.832213 c 0,-0.14111 0.0706,-0.23518 0.21167,-0.28222 z m 22.64827,-0.10583 c 0.11759,0 0.19991,0.047 0.24695,0.14111 0.0705,0.0941 0.0823,0.18815 0.0353,0.28222 l -8.18442,19.261619 c -0.0471,0.11759 -0.14114,0.17639 -0.28222,0.17639 h -1.19944 c -0.11759,0 -0.21167,-0.0588 -0.28223,-0.17639 l -8.18442,-19.261619 c -0.047,-0.0941 -0.047,-0.18815 0,-0.28222 0.0705,-0.0941 0.16463,-0.14111 0.28222,-0.14111 h 3.52777 c 0.11759,0 0.21167,0.0588 0.28222,0.17638 l 6.13832,14.534419 5.50332,-14.534419 c 0.0705,-0.11759 0.16463,-0.17638 0.28222,-0.17638 z m 6.63223,-5.150551 c 0.61148,0 1.10536,0.19991 1.48166,0.59972 0.39981,0.39981 0.59972,0.870181 0.59972,1.411111 0,0.54093 -0.19991,1.0113 -0.59972,1.41111 -0.3763,0.37629 -0.87018,0.56444 -1.48166,0.56444 -0.61148,0 -1.11713,-0.18815 -1.51695,-0.56444 -0.3763,-0.39981 -0.56444,-0.87018 -0.56444,-1.41111 0,-0.54093 0.18814,-1.011301 0.56444,-1.411111 0.39982,-0.39981 0.90547,-0.59972 1.51695,-0.59972 z m 1.55221,5.256381 c 0.23518,-0.0471 0.35278,0.047 0.35278,0.28222 v 19.191069 c 0,0.18815 -0.0941,0.28222 -0.28222,0.28222 h -3.24555 c -0.18815,0 -0.28222,-0.0941 -0.28222,-0.28222 V 27.832213 c 0,-0.14111 0.0705,-0.23518 0.21167,-0.28222 z m 23.03632,-7.514151 c 0.23519,-0.0471 0.35278,0.047 0.35278,0.28222 v 26.98744 c 0,0.11759 -0.047,0.19991 -0.14111,0.24694 -0.0706,0.0706 -0.16463,0.0823 -0.28222,0.0353 l -2.78694,-1.79916 c -0.70555,0.54093 -1.55222,0.98778 -2.54,1.34055 -0.96425,0.32926 -2.11665,0.49389 -3.45721,0.49389 -1.55222,0 -2.92805,-0.24694 -4.12749,-0.74083 -1.17592,-0.51741 -2.17546,-1.22296 -2.99861,-2.11667 -0.79962,-0.91722 -1.4111,-1.99907 -1.83444,-3.24554 -0.42333,-1.24648 -0.635,-2.62231 -0.635,-4.12749 0,-1.27 0.18815,-2.51648 0.56445,-3.73944 0.3763,-1.246479 0.91722,-2.340089 1.62277,-3.280829 0.70556,-0.96425 1.57574,-1.74036 2.61055,-2.32832 1.05834,-0.58797 2.25778,-0.88195 3.59833,-0.88195 0.61148,0 1.18768,0.10583 1.7286,0.3175 0.56445,0.18815 1.0701,0.44685 1.51694,0.77611 0.47038,0.30574 0.87019,0.65852 1.19945,1.05833 0.35278,0.39981 0.635,0.79963 0.84666,1.19944 0.0471,0.11759 0.0353,0.21167 -0.0353,0.28223 l -0.24694,0.35277 c -0.0471,0.0941 -0.11762,0.14111 -0.21167,0.14111 -0.0941,0 -0.17638,-0.0353 -0.24694,-0.10583 -0.42333,-0.49389 -0.90546,-0.84666 -1.44639,-1.05833 -0.5174,-0.21167 -1.1524,-0.3175 -1.90499,-0.3175 -0.91722,0 -1.71685,0.21167 -2.39889,0.635 -0.65851,0.42333 -1.22295,0.98778 -1.69332,1.69333 -0.44685,0.68203 -0.78787,1.481659 -1.02306,2.398879 -0.21166,0.91722 -0.3175,1.86972 -0.3175,2.8575 0,1.05833 0.10584,2.11666 0.3175,3.17499 0.21167,1.03481 0.54093,1.96379 0.98778,2.78694 0.44685,0.82315 1.01129,1.49342 1.69333,2.01083 0.68204,0.51741 1.49342,0.77611 2.43416,0.77611 0.8937,0 1.68157,-0.27046 2.3636,-0.81139 0.68204,-0.54093 1.24649,-1.18769 1.69333,-1.94028 0.44686,-0.77611 0.77612,-1.58749 0.98778,-2.43416 0.23519,-0.87018 0.35278,-1.62277 0.35278,-2.25777 v -17.60357 c 0,-0.18815 0.0706,-0.28222 0.21166,-0.28222 z m 14.71079,7.126091 c 2.37537,0 4.19805,0.75259 5.46804,2.25778 1.29352,1.48166 1.94028,3.64536 1.94028,6.491089 v 11.11248 c 0,0.18815 -0.0941,0.28222 -0.28223,0.28222 h -3.24554 c -0.21167,0 -0.3175,-0.0941 -0.3175,-0.28222 v -11.11248 c 0,-2.21073 -0.41157,-3.821749 -1.23472,-4.833039 -0.79963,-1.03481 -1.97555,-1.55222 -3.52777,-1.55222 -0.68204,0 -1.34056,0.14111 -1.97555,0.42333 -0.61148,0.25871 -1.15241,0.65852 -1.62278,1.19944 -0.44685,0.54093 -0.81138,1.2112 -1.09361,2.01083 -0.2587,0.799629 -0.38805,1.716849 -0.38805,2.751659 v 11.11248 c 0,0.18815 -0.10583,0.28222 -0.3175,0.28222 h -3.21027 c -0.21167,0 -0.3175,-0.0941 -0.3175,-0.28222 v -25.92911 c 0,-0.18815 0.0823,-0.28222 0.24694,-0.28222 l 3.24555,-0.77611 c 0.23519,-0.0471 0.35278,0.047 0.35278,0.28222 v 10.442201 c 0.68203,-1.10537 1.55222,-1.97555 2.61055,-2.61055 1.08185,-0.65852 2.30481,-0.98778 3.66888,-0.98778 z m 13.723,-4.868321 c 0.61148,0 1.10537,0.19991 1.48167,0.59972 0.39981,0.39981 0.59972,0.870181 0.59972,1.411111 0,0.54093 -0.19991,1.0113 -0.59972,1.41111 -0.3763,0.37629 -0.87019,0.56444 -1.48167,0.56444 -0.61148,0 -1.11713,-0.18815 -1.51694,-0.56444 -0.3763,-0.39981 -0.56444,-0.87018 -0.56444,-1.41111 0,-0.54093 0.18814,-1.011301 0.56444,-1.411111 0.39981,-0.39981 0.90546,-0.59972 1.51694,-0.59972 z m 1.55222,5.256381 c 0.23518,-0.0471 0.35278,0.047 0.35278,0.28222 v 19.191069 c 0,0.18815 -0.0941,0.28222 -0.28222,0.28222 h -3.24555 c -0.18815,0 -0.28222,-0.0941 -0.28222,-0.28222 V 27.832213 c 0,-0.14111 0.0705,-0.23518 0.21167,-0.28222 z"
         id="text1-1-8"
         aria-label="Trividhi"
         sodipodi:nodetypes="sssccssssccssssccccccccsssssssccscscssscscscssssssccscccsscccsscccssscssscscscsssssscccssccccsccsscccsccccccsccscccscssssccssccscsssssscscccssssssccsccsscssscscscsssssscc" />
      <text
         xml:space="preserve"
         style="font-style:normal;font-variant:normal;font-weight:normal;font-stretch:normal;font-size:29.986px;font-family:Veiran;-inkscape-font-specification:'Veiran, Normal';font-variant-ligatures:normal;font-variant-caps:normal;font-variant-numeric:normal;font-variant-east-asian:normal;text-align:start;writing-mode:lr-tb;direction:ltr;text-anchor:start;fill:#000096;fill-opacity:1;stroke:none;stroke-width:4.05299;stroke-linecap:square;stroke-linejoin:round;stroke-miterlimit:0;paint-order:markers stroke fill"
         x="78.548325"
         y="73.475319"
         id="text2"><tspan
           sodipodi:role="line"
           id="tspan2"
           style="stroke-width:4.053"
           x="78.548325"
           y="73.475319">L</tspan></text>
      <path
         style="font-size:29.986px;font-family:Veiran;-inkscape-font-specification:'Veiran, Normal';fill:#000096;stroke-width:4.053;stroke-linecap:square;stroke-linejoin:round;stroke-miterlimit:0;paint-order:markers stroke fill"
         d="m 110.89707,59.911941 c 0,0.739655 -0.27987,1.329379 -0.8396,1.769174 -0.55974,0.419804 -1.25941,0.779636 -2.09902,1.079496 -0.83961,0.29986 -1.75919,0.579729 -2.75872,0.839608 -0.97954,0.259879 -1.88911,0.589725 -2.72872,0.989538 -0.83961,0.379823 -1.53928,0.889585 -2.09902,1.529286 -0.559739,0.619711 -0.839609,1.449323 -0.839609,2.488838 0,0.539748 0.09995,1.04951 0.29986,1.529286 0.199909,0.459785 0.489769,0.859599 0.869589,1.19944 0.37983,0.339841 0.82962,0.609715 1.34937,0.809622 0.53975,0.199907 1.13947,0.29986 1.79916,0.29986 0.73966,0 1.34938,-0.08996 1.82915,-0.269874 0.47977,-0.179916 0.8596,-0.429799 1.13947,-0.74965 0.29986,-0.319851 0.50976,-0.679683 0.6297,-1.079496 0.11995,-0.419804 0.17992,-0.859599 0.17992,-1.319384 v -4.467914 c 0,-0.119944 0.07,-0.199907 0.2099,-0.239888 l 2.75871,-0.629706 c 0.19991,-0.03998 0.29986,0.03998 0.29986,0.239888 v 9.265674 c 0,0.159925 -0.08,0.239888 -0.23988,0.239888 h -2.75872 c -0.17991,0 -0.26987,-0.07996 -0.26987,-0.239888 v -0.329846 c -0.45979,0.259879 -0.99953,0.459785 -1.61924,0.59972 -0.59972,0.159925 -1.31939,0.239888 -2.159,0.239888 -1.17945,0 -2.25894,-0.119944 -3.23848,-0.359832 -0.959549,-0.259879 -1.779172,-0.619711 -2.458855,-1.079496 -0.679683,-0.479776 -1.209435,-1.059505 -1.589258,-1.739188 -0.359832,-0.679683 -0.539748,-1.439328 -0.539748,-2.278936 0,-0.919571 0.159925,-1.679216 0.479776,-2.278936 0.339841,-0.59972 0.779636,-1.079496 1.319384,-1.439328 0.559739,-0.379823 1.179449,-0.669687 1.859132,-0.869594 0.699669,-0.219897 1.409339,-0.389818 2.129009,-0.509762 0.73965,-0.139935 1.44932,-0.269874 2.129,-0.389818 0.69967,-0.119944 1.31938,-0.279869 1.85913,-0.479776 0.55974,-0.219897 0.99954,-0.499767 1.31939,-0.839608 0.33984,-0.359832 0.50976,-0.829613 0.50976,-1.409342 0,-0.819617 -0.34984,-1.429333 -1.04951,-1.829146 -0.67968,-0.419804 -1.50929,-0.629706 -2.48884,-0.629706 -0.55974,0 -1.08949,0.07996 -1.58926,0.239888 -0.49977,0.159925 -0.94956,0.379823 -1.34937,0.659692 -0.39981,0.259879 -0.76964,0.569734 -1.10948,0.929566 -0.319849,0.339841 -0.599717,0.699673 -0.839605,1.079496 h -0.569734 l -1.709202,-1.619244 c -0.139935,-0.119944 -0.149931,-0.239888 -0.02999,-0.359832 0.419804,-0.379823 0.89958,-0.699673 1.439328,-0.959552 0.559739,-0.279869 1.149462,-0.509762 1.769173,-0.689678 0.6397,-0.179916 1.2994,-0.309855 1.97908,-0.389818 0.67968,-0.09995 1.34936,-0.14993 2.00906,-0.14993 1.01952,0 1.93909,0.06997 2.75871,0.209902 0.83961,0.139935 1.55928,0.359832 2.159,0.659692 0.59972,0.279869 1.0595,0.649697 1.37935,1.109482 0.33984,0.439795 0.50976,0.979543 0.50976,1.619244 z m 12.76172,-3.59832 c 1.11734,-0.223468 2.14899,0.249883 3.02859,0.74965 0.89958,0.499767 1.64923,1.159459 2.24895,1.979076 0.59972,0.799627 1.0595,1.729193 1.37935,2.788698 0.31985,1.039515 0.47978,2.09902 0.47978,3.178516 0,1.279403 -0.17992,2.448857 -0.53975,3.508362 -0.33984,1.059505 -0.8596,1.979076 -1.55927,2.758712 -0.67968,0.759645 -1.52929,1.359365 -2.54881,1.79916 -1.01953,0.419804 -2.18898,0.629706 -3.50836,0.629706 -1.4993,0 -2.74872,-0.239888 -3.74825,-0.719664 -0.99954,-0.499767 -1.79916,-1.109482 -2.39888,-1.829146 -0.59972,-0.719664 -1.02952,-1.4993 -1.2894,-2.338908 -0.25988,-0.859599 -0.38982,-1.64923 -0.38982,-2.368894 v -15.29286 c 0,-0.159925 0.06,-0.239888 0.17992,-0.239888 l 2.75871,-0.659692 c 0.1999,-0.03998 0.29986,0.03998 0.29986,0.239888 v 15.622706 c 0,0.539748 0.09,1.179449 0.26987,1.919104 0.1999,0.719664 0.48977,1.409342 0.8696,2.069034 0.37982,0.639701 0.85959,1.189445 1.43933,1.64923 0.57972,0.459785 1.24941,0.689678 2.00906,0.689678 0.79962,0 1.4893,-0.219897 2.06903,-0.659692 0.57973,-0.439795 1.05951,-1.009529 1.43933,-1.709202 0.37982,-0.699673 0.65969,-1.489305 0.83961,-2.368894 0.17991,-0.89958 0.26987,-1.79916 0.26987,-2.69874 0,-0.839608 -0.1,-1.64923 -0.29986,-2.428866 -0.17992,-0.779636 -0.46978,-1.459319 -0.86959,-2.039048 -0.37983,-0.59972 -0.85961,-1.079496 -1.43933,-1.439328 -0.55974,-0.359832 -1.22943,-0.539748 -2.00906,-0.539748 -0.6397,0 -1.18945,0.08996 -1.64923,0.269874 -0.4398,0.179916 -0.83961,0.479776 -1.19944,0.89958 -0.06,0.05997 -0.12997,0.08996 -0.2099,0.08996 -0.08,0 -0.13994,-0.03998 -0.17992,-0.119944 l -0.2099,-0.29986 c -0.08,-0.09995 -0.09,-0.179916 -0.03,-0.239888 0.17992,-0.339841 0.40981,-0.679683 0.68968,-1.019524 0.29986,-0.339841 0.6397,-0.639701 1.01952,-0.89958 0.39981,-0.279869 0.82961,-0.499767 1.2894,-0.659692 0.47978,-0.179916 0.98964,-0.167942 1.4993,-0.269874 z m 13.75118,3.718264 c 0,-0.579729 0.27987,1.079496 0.83961,1.4993 0.55974,0.419804 1.25942,0.809622 2.09902,1.169454 0.83961,0.359832 1.74919,0.719664 2.72873,1.079496 0.99954,0.339841 1.91911,0.74965 2.75871,1.229426 0.83961,0.459785 1.53928,1.009529 2.09902,1.64923 0.55974,0.639701 0.83961,1.419337 0.83961,2.338908 0,0.839608 -0.21989,1.559272 -0.65969,2.158992 -0.4198,0.59972 -0.98954,1.089491 -1.70921,1.469314 -0.71966,0.379823 -1.54927,0.649697 -2.48883,0.809622 -0.93956,0.179916 -1.91911,0.269874 -2.93863,0.269874 -1.65922,0 -3.14853,-0.259879 -4.46792,-0.779636 -1.31938,-0.519757 -2.38888,-1.159459 -3.2085,-1.919104 -0.15992,-0.119944 -0.15992,-0.239888 0,-0.359832 l 1.7092,-1.619244 h 0.56974 c 0.23989,0.379823 0.51976,0.779636 0.83961,1.19944 0.31985,0.399813 0.68968,0.769641 1.10948,1.109482 0.4398,0.319851 0.93956,0.589725 1.4993,0.809622 0.55974,0.199907 1.20944,0.29986 1.94909,0.29986 0.47978,0 0.96955,-0.01999 1.46931,-0.05997 0.51976,-0.03998 0.98954,-0.139933 1.40934,-0.29986 0.41981,-0.179916 0.75965,-0.419804 1.01953,-0.719664 0.25988,-0.319851 0.38982,-0.74965 0.38982,-1.289398 0,-0.779636 -0.27987,-1.409342 -0.83961,-1.889118 -0.55974,-0.499767 -1.25941,-0.929566 -2.09902,-1.289398 -0.8396,-0.359832 -1.74918,-0.689678 -2.72873,-0.989538 -0.97954,-0.319851 -1.88911,-0.679683 -2.72872,-1.079496 -0.83961,-0.399813 -1.53928,-0.879589 -2.09902,-1.439328 -0.55974,-0.579729 -0.83961,-1.319384 -0.83961,-2.218964 0,-0.779636 0.16992,-1.469314 0.50976,-2.069034 0.35984,-0.59972 0.84961,-1.109482 1.46931,-1.529286 0.63971,-0.419804 1.38936,-0.729659 2.24895,-0.929566 0.8596,-0.219897 1.79917,-0.329846 2.81869,-0.329846 1.31938,0 2.59879,0.179916 3.83821,0.539748 1.23942,0.339841 2.26894,0.889585 3.08855,1.64923 0.06,0.03998 0.08,0.09995 0.06,0.179916 0,0.07996 -0.02,0.139935 -0.06,0.179916 l -1.73918,1.619244 h -0.53975 c -0.23988,-0.379823 -0.51975,-0.739655 -0.83961,-1.079496 -0.29986,-0.359832 -0.6397,-0.669687 -1.01952,-0.929566 -0.35983,-0.279869 -0.76964,-0.499767 -1.22943,-0.659692 -0.45978,-0.159925 -0.97954,-0.239888 -1.55927,-0.239888 -0.49976,0 -0.96954,0.04998 -1.40934,0.14993 -0.4198,0.09995 -0.78963,0.259879 -1.10949,0.479776 -0.31984,0.199907 -0.57972,0.44979 -0.77963,0.74965 -0.17992,0.29986 -0.26988,1.4993 -0.26988,1.079496 z"
         id="text2-8"
         aria-label="abs"
         sodipodi:nodetypes="scscccscscssccssccsssssccscccscccccccscsscccccccccscccssscccscccscscssccssccsssscscccsccsccccccsssssccsscscsscccccccscccscscscscccsccccccccsscccss" />
    </g>
  </g>
</svg>
